<?xml version="1.0" encoding="UTF-8"?>
<svg xmlns="http://www.w3.org/2000/svg" id="Layer_2" data-name="Layer 2" viewBox="0 0 53.62 12.76">
  <defs>
    <style>
      .cls-1 {
        fill: #fff;
      }

      .cls-2 {
        fill: #001f58;
      }

      .cls-3 {
        fill: none;
      }
    </style>
  </defs>
  <g id="Web_Page" data-name="Web Page">
    <g>
      <g>
        <polygon class="cls-2" points="35.23 10.24 33.73 8.05 35.15 6.01 34.3 6.01 33.33 7.47 32.34 6.01 31.45 6.01 32.86 8.08 31.37 10.24 32.22 10.24 33.26 8.66 34.34 10.24 35.23 10.24"></polygon>
        <path class="cls-2" d="m39.22,6.93c-.14-.32-.33-.57-.57-.74-.24-.17-.5-.26-.79-.26-.27,0-.53.07-.77.22-.21.13-.4.29-.56.48l-.13-.61h-.71l.07.36c.02.12.04.23.05.32,0,.1.01.2.01.32v4.88l.76-.16v-2.03c.12.19.26.34.43.44.22.13.45.19.69.19.36,0,.66-.09.93-.27.26-.18.46-.43.61-.77.15-.33.22-.73.22-1.2s-.07-.84-.21-1.16Zm-.86,2.32c-.2.29-.47.44-.81.44-.16,0-.32-.05-.47-.14-.15-.1-.28-.24-.37-.44-.1-.2-.15-.46-.15-.77v-1.16c.14-.15.29-.28.45-.37.2-.12.41-.18.63-.18.19,0,.36.06.52.17.15.12.27.28.36.5.09.22.13.49.13.81,0,.47-.1.85-.3,1.14Z"></path>
        <path class="cls-2" d="m41.46,6.17c-.21.14-.37.32-.51.53l-.15-.69h-.71l.07.36c.02.12.04.23.05.32,0,.1.01.2.01.32v3.23h.76v-2.96c.13-.14.29-.27.47-.35.24-.11.53-.18.87-.19v-.81c-.32,0-.6.08-.86.25Z"></path>
        <path class="cls-2" d="m45.97,6.87c-.16-.32-.37-.55-.63-.71s-.56-.23-.88-.23c-.35,0-.67.08-.95.25-.29.17-.51.42-.68.75-.17.33-.25.75-.25,1.24s.09.88.27,1.2c.18.32.43.56.74.72.31.16.66.24,1.06.24.25,0,.49-.03.73-.1.23-.07.44-.18.63-.33l-.35-.6c-.13.1-.27.18-.44.25-.16.07-.35.1-.54.1-.25,0-.47-.05-.67-.16-.2-.11-.35-.27-.47-.49-.09-.17-.14-.39-.16-.63h2.84s0-.1.01-.15c0-.05,0-.1,0-.15,0-.47-.08-.87-.23-1.18Zm-2.11-.1c.17-.12.36-.18.58-.18.28,0,.52.11.72.33.16.18.25.45.28.82h-2.08c.02-.17.06-.32.11-.45.09-.23.22-.41.39-.53Z"></path>
        <path class="cls-2" d="m49.79,8.55c-.08-.16-.22-.32-.42-.46-.2-.14-.48-.26-.84-.37-.26-.08-.46-.15-.6-.21-.15-.07-.25-.14-.3-.21-.06-.07-.09-.16-.09-.27,0-.13.06-.24.19-.34.13-.09.32-.14.57-.14.21,0,.4.04.58.11.18.07.33.17.46.28l.42-.54c-.19-.16-.41-.28-.66-.36-.25-.08-.49-.12-.73-.12-.3,0-.57.05-.81.16-.24.1-.42.25-.56.42-.13.18-.2.38-.2.61,0,.29.1.54.31.76.21.22.55.4,1.04.55.26.08.47.15.61.23.15.08.25.16.3.25.06.09.09.18.09.28,0,.15-.07.28-.21.37-.14.09-.35.14-.63.14s-.5-.05-.7-.14c-.2-.09-.37-.2-.52-.32l-.44.51c.19.17.43.31.71.42.28.11.58.16.9.16.33,0,.63-.05.87-.16.25-.11.44-.25.58-.44.14-.19.21-.4.21-.63,0-.2-.04-.38-.12-.54Z"></path>
        <path class="cls-2" d="m53.5,8.55c-.08-.16-.22-.32-.42-.46-.2-.14-.48-.26-.84-.37-.26-.08-.46-.15-.6-.21-.15-.07-.25-.14-.3-.21-.06-.07-.09-.16-.09-.27,0-.13.06-.24.19-.34.13-.09.32-.14.57-.14.21,0,.4.04.58.11.18.07.33.17.46.28l.42-.54c-.19-.16-.41-.28-.66-.36-.25-.08-.49-.12-.73-.12-.3,0-.57.05-.81.16-.24.1-.42.25-.56.42-.13.18-.2.38-.2.61,0,.29.1.54.31.76.21.22.55.4,1.04.55.26.08.47.15.61.23.15.08.25.16.3.25.06.09.09.18.09.28,0,.15-.07.28-.21.37-.14.09-.35.14-.63.14s-.5-.05-.7-.14c-.2-.09-.37-.2-.52-.32l-.44.51c.19.17.43.31.71.42.28.11.58.16.9.16.33,0,.62-.05.87-.16.25-.11.44-.25.58-.44.14-.19.21-.4.21-.63,0-.2-.04-.38-.12-.54Z"></path>
      </g>
      <g>
        <g>
          <path class="cls-3" d="m9.63,5.09c-.96-1.38-1.47-1.66-1.48-1.67l-.19.08s-.01,0-.02,0l-.42.2s-.07.06-.07.11l-.02.81s.02.08.04.1h0s.94.78,1.46.88.85.11.85.11c.29.02.31,0,.13-.24-.1-.13-.18-.27-.28-.4Z"></path>
          <path class="cls-3" d="m9.63,5.09c-.96-1.38-1.47-1.66-1.48-1.67l-.19.08s-.01,0-.02,0l-.42.2s-.07.06-.07.11l-.02.81s.02.08.04.1h0s.94.78,1.46.88.85.11.85.11c.29.02.31,0,.13-.24-.1-.13-.18-.27-.28-.4Z"></path>
          <path class="cls-1" d="m12.21,3.58s.02.01.03.02c.71.71,1.39,1.66,1.89,2.45-.25-.02-1.29-.07-2.81-.06-.32-.46-.71-1.02-1.16-1.66-.3-.43-.59-.79-.86-1.08.42,0,1.78.06,2.91.34Z"></path>
          <path class="cls-2" d="m11.32,5.98c1.52-.01,2.56.04,2.81.06-.5-.79-1.18-1.74-1.89-2.45,0,0-.02-.01-.03-.02-1.12-.28-2.48-.33-2.91-.34.27.29.56.65.86,1.08.45.64.84,1.2,1.16,1.66Z"></path>
        </g>
        <g>
          <path class="cls-3" d="m9.63,5.09c-.96-1.38-1.47-1.66-1.48-1.67l-.19.08s-.01,0-.02,0l-.42.2s-.07.06-.07.11l-.02.81s.02.08.04.1h0s.94.78,1.46.88.85.11.85.11c.29.02.31,0,.13-.24-.1-.13-.18-.27-.28-.4Z"></path>
          <g>
            <path class="cls-3" d="m12.06,8.06c-.13,0-.25.09-.27.21-.02.12.06.21.19.21s.25-.09.27-.21-.06-.21-.19-.21Z"></path>
            <path class="cls-3" d="m9.63,5.09c-.96-1.38-1.47-1.66-1.48-1.67l-.19.08s-.01,0-.02,0l-.42.2s-.07.06-.07.11l-.02.81s.02.08.04.1h0s.94.78,1.46.88.85.11.85.11c.29.02.31,0,.13-.24-.1-.13-.18-.27-.28-.4Z"></path>
            <path class="cls-3" d="m14.91,7.94c-.09.01-.16.11-.14.22s.11.19.2.18.16-.11.14-.22c-.02-.11-.11-.19-.2-.18Z"></path>
          </g>
        </g>
        <g>
          <path class="cls-3" d="m9.63,5.09c-.96-1.38-1.47-1.66-1.48-1.67l-.19.08s-.01,0-.02,0l-.42.2s-.07.06-.07.11l-.02.81s.02.08.04.1h0s.94.78,1.46.88.85.11.85.11c.29.02.31,0,.13-.24-.1-.13-.18-.27-.28-.4Z"></path>
          <path class="cls-3" d="m14.91,7.94c-.09.01-.16.11-.14.22s.11.19.2.18.16-.11.14-.22c-.02-.11-.11-.19-.2-.18Z"></path>
        </g>
        <g>
          <polygon class="cls-3" points="6.1 2.67 5.56 2.67 5.37 2.83 6.05 2.83 6.1 2.67"></polygon>
          <polygon class="cls-3" points="4.69 3.03 4.67 3.21 4.88 3.03 4.69 3.03"></polygon>
          <polygon class="cls-3" points="5.3 2.68 4.74 2.68 4.72 2.83 5.11 2.83 5.3 2.68"></polygon>
          <path class="cls-3" d="m14.97,8.34c.09-.01.16-.11.14-.22-.02-.11-.11-.19-.2-.18s-.16.11-.14.22.11.19.2.18Z"></path>
          <path class="cls-3" d="m9.91,5.5c-.1-.13-.18-.27-.28-.4-.96-1.38-1.47-1.66-1.48-1.67l-.19.08s-.01,0-.02,0l-.42.2s-.07.06-.07.11l-.02.81s.02.08.04.1h0s.94.78,1.46.88.85.11.85.11c.29.02.31,0,.13-.24Z"></path>
          <polygon class="cls-3" points="4.57 3.89 4.55 4.05 4.84 4.04 5.02 3.86 4.57 3.89"></polygon>
          <polygon class="cls-3" points="5.9 3.01 5.14 3.02 4.64 3.44 4.6 3.73 5.2 3.69 5.9 3.01"></polygon>
          <g>
            <polygon class="cls-3" points="5.9 3.01 5.14 3.02 4.64 3.44 4.6 3.73 5.2 3.69 5.9 3.01"></polygon>
            <polygon class="cls-3" points="5.3 2.68 4.74 2.68 4.72 2.83 5.11 2.83 5.3 2.68"></polygon>
            <polygon class="cls-3" points="6.1 2.67 5.56 2.67 5.37 2.83 6.05 2.83 6.1 2.67"></polygon>
            <path class="cls-3" d="m14.97,8.34c.09-.01.16-.11.14-.22-.02-.11-.11-.19-.2-.18s-.16.11-.14.22.11.19.2.18Z"></path>
            <polygon class="cls-3" points="4.69 3.03 4.67 3.21 4.88 3.03 4.69 3.03"></polygon>
            <polygon class="cls-3" points="4.57 3.89 4.55 4.05 4.84 4.04 5.02 3.86 4.57 3.89"></polygon>
            <path class="cls-3" d="m9.91,5.5c-.1-.13-.18-.27-.28-.4-.96-1.38-1.47-1.66-1.48-1.67l-.19.08s-.01,0-.02,0l-.42.2s-.07.06-.07.11l-.02.81s.02.08.04.1h0s.94.78,1.46.88.85.11.85.11c.29.02.31,0,.13-.24Z"></path>
          </g>
        </g>
        <g>
          <polygon class="cls-3" points="5.3 2.68 4.74 2.68 4.72 2.83 5.11 2.83 5.3 2.68"></polygon>
          <polygon class="cls-3" points="4.69 3.03 4.67 3.21 4.88 3.03 4.69 3.03"></polygon>
          <polygon class="cls-3" points="6.1 2.67 5.56 2.67 5.37 2.83 6.05 2.83 6.1 2.67"></polygon>
          <polygon class="cls-3" points="5.9 3.01 5.14 3.02 4.64 3.44 4.6 3.73 5.2 3.69 5.9 3.01"></polygon>
          <path class="cls-3" d="m14.97,8.34c.09-.01.16-.11.14-.22-.02-.11-.11-.19-.2-.18s-.16.11-.14.22.11.19.2.18Z"></path>
          <path class="cls-3" d="m9.91,5.5c-.1-.13-.18-.27-.28-.4-.96-1.38-1.47-1.66-1.48-1.67l-.19.08s-.01,0-.02,0l-.42.2s-.07.06-.07.11l-.02.81s.02.08.04.1h0s.94.78,1.46.88.85.11.85.11c.29.02.31,0,.13-.24Z"></path>
          <polygon class="cls-3" points="4.57 3.89 4.55 4.05 4.84 4.04 5.02 3.86 4.57 3.89"></polygon>
        </g>
        <path class="cls-2" d="m4.87,9.48s-.03,0,0,0h0Z"></path>
        <g>
          <polygon class="cls-3" points="5.3 2.68 4.74 2.68 4.72 2.83 5.11 2.83 5.3 2.68"></polygon>
          <polygon class="cls-3" points="5.9 3.01 5.14 3.02 4.64 3.44 4.6 3.73 5.2 3.69 5.9 3.01"></polygon>
          <polygon class="cls-3" points="6.1 2.67 5.56 2.67 5.37 2.83 6.05 2.83 6.1 2.67"></polygon>
          <polygon class="cls-3" points="4.69 3.03 4.67 3.21 4.88 3.03 4.69 3.03"></polygon>
          <path class="cls-3" d="m11.97,8.48c.13,0,.25-.09.27-.21s-.06-.21-.19-.21c-.13,0-.25.09-.27.21-.02.12.06.21.19.21Z"></path>
          <path class="cls-3" d="m14.97,8.34c.09-.01.16-.11.14-.22-.02-.11-.11-.19-.2-.18s-.16.11-.14.22.11.19.2.18Z"></path>
          <path class="cls-3" d="m11.24,8.36c.17,0,.33-.12.36-.27,0,0,0-.01,0-.02,0,0,0,0,0,0,0,0,0,0,0-.01,0,0,0,0,0,0,0,0,0,0,0,0,0,0,0,0,0,0,0,0,0,0,0,0,0,0,0,0,0,0,0,0,0,0,0-.01,0,0,0,0,0,0,0,0,0,0,0-.01,0,0,0,0,0,0,0,0,0,0,0-.01,0,0,0,0,0,0,0,0,0,0,0-.01,0,0,0,0,0,0,0,0,0,0,0,0,0,0,0-.01,0-.02,0,0,0,0,0,0,0,0,0-.01,0-.02,0,0,0,0,0,0,0,0,0-.01,0-.02,0,0,0,0,0,0,0,0,0,0,0-.01,0,0,0,0,0,0,0,0-.01-.02-.02-.03,0,0,0,0,0,0,0,0-.02-.01-.03-.02,0,0,0,0,0,0,0,0,0,0-.01,0,0,0,0,0,0,0,0,0-.01,0-.02,0,0,0,0,0,0,0,0,0,0,0-.01,0,0,0,0,0,0,0,0,0-.01,0-.02,0,0,0,0,0,0,0,0,0,0,0-.01,0,0,0,0,0,0,0,0,0-.01,0-.02,0,0,0,0,0,0,0,0,0-.01,0-.02,0,0,0,0,0,0,0,0,0-.01,0-.02,0,0,0-.02,0-.03,0,0,0,0,0,0,0,0,0-.01,0-.02,0,0,0,0,0,0,0,0,0-.02,0-.03,0,0,0,0,0,0,0,0,0-.01,0-.02,0,0,0,0,0-.01,0,0,0-.01,0-.02,0,0,0,0,0-.01,0,0,0-.01,0-.02.01,0,0,0,0-.01,0,0,0,0,0,0,0,0,0,0,0-.01,0,0,0,0,0,0,0-.02.01-.03.02-.05.04,0,0,0,0,0,0-.02.02-.04.05-.06.07,0,0,0,0,0,0,0,0,0,0,0,.01,0,0,0,.01,0,.02,0,0,0,0,0,0,0,0,0,.01,0,.02,0,0,0,0,0,0,0,0,0,.02,0,.03-.03.15.08.28.24.28Z"></path>
          <polygon class="cls-3" points="4.57 3.89 4.55 4.05 4.84 4.04 5.02 3.86 4.57 3.89"></polygon>
          <path class="cls-3" d="m9.91,5.5c-.1-.13-.18-.27-.28-.4-.96-1.38-1.47-1.66-1.48-1.67l-.19.08s-.01,0-.02,0l-.42.2s-.07.06-.07.11l-.02.81s.02.08.04.1h0s.94.78,1.46.88.85.11.85.11c.29.02.31,0,.13-.24Z"></path>
        </g>
        <g>
          <polygon class="cls-3" points="5.3 2.68 4.74 2.68 4.72 2.83 5.11 2.83 5.3 2.68"></polygon>
          <polygon class="cls-3" points="5.02 3.86 4.57 3.89 4.55 4.05 4.84 4.04 5.02 3.86"></polygon>
          <polygon class="cls-3" points="6.1 2.67 5.56 2.67 5.37 2.83 6.05 2.83 6.1 2.67"></polygon>
          <polygon class="cls-3" points="4.69 3.03 4.67 3.21 4.88 3.03 4.69 3.03"></polygon>
          <path class="cls-3" d="m14.97,8.34c.09-.01.16-.11.14-.22-.02-.11-.11-.19-.2-.18s-.16.11-.14.22.11.19.2.18Z"></path>
          <path class="cls-3" d="m11.97,8.48c.13,0,.25-.09.27-.21s-.06-.21-.19-.21c-.13,0-.25.09-.27.21-.02.12.06.21.19.21Z"></path>
          <path class="cls-3" d="m11.24,8.36c.17,0,.33-.12.36-.27,0,0,0-.01,0-.02,0,0,0,0,0,0,0,0,0,0,0-.01,0,0,0,0,0,0,0,0,0,0,0,0,0,0,0,0,0,0,0,0,0,0,0,0,0,0,0,0,0,0,0,0,0,0,0-.01,0,0,0,0,0,0,0,0,0,0,0-.01,0,0,0,0,0,0,0,0,0,0,0-.01,0,0,0,0,0,0,0,0,0,0,0-.01,0,0,0,0,0,0,0,0,0,0,0,0,0,0,0-.01,0-.02,0,0,0,0,0,0,0,0,0-.01,0-.02,0,0,0,0,0,0,0,0,0-.01,0-.02,0,0,0,0,0,0,0,0,0,0,0-.01,0,0,0,0,0,0,0,0-.01-.02-.02-.03,0,0,0,0,0,0,0,0-.02-.01-.03-.02,0,0,0,0,0,0,0,0,0,0-.01,0,0,0,0,0,0,0,0,0-.01,0-.02,0,0,0,0,0,0,0,0,0,0,0-.01,0,0,0,0,0,0,0,0,0-.01,0-.02,0,0,0,0,0,0,0,0,0,0,0-.01,0,0,0,0,0,0,0,0,0-.01,0-.02,0,0,0,0,0,0,0,0,0-.01,0-.02,0,0,0,0,0,0,0,0,0-.01,0-.02,0,0,0-.02,0-.03,0,0,0,0,0,0,0,0,0-.01,0-.02,0,0,0,0,0,0,0,0,0-.02,0-.03,0,0,0,0,0,0,0,0,0-.01,0-.02,0,0,0,0,0-.01,0,0,0-.01,0-.02,0,0,0,0,0-.01,0,0,0-.01,0-.02.01,0,0,0,0-.01,0,0,0,0,0,0,0,0,0,0,0-.01,0,0,0,0,0,0,0-.02.01-.03.02-.05.04,0,0,0,0,0,0-.02.02-.04.05-.06.07,0,0,0,0,0,0,0,0,0,0,0,.01,0,0,0,.01,0,.02,0,0,0,0,0,0,0,0,0,.01,0,.02,0,0,0,0,0,0,0,0,0,.02,0,.03-.03.15.08.28.24.28Z"></path>
          <polygon class="cls-3" points="5.9 3.01 5.14 3.02 4.64 3.44 4.6 3.73 5.2 3.69 5.9 3.01"></polygon>
          <path class="cls-3" d="m9.91,5.5c-.1-.13-.18-.27-.28-.4-.96-1.38-1.47-1.66-1.48-1.67l-.19.08s-.01,0-.02,0l-.42.2s-.07.06-.07.11l-.02.81s.02.08.04.1h0s.94.78,1.46.88.85.11.85.11c.29.02.31,0,.13-.24Z"></path>
          <g>
            <polygon class="cls-3" points="6.1 2.67 5.56 2.67 5.37 2.83 6.05 2.83 6.1 2.67"></polygon>
            <polygon class="cls-3" points="5.3 2.68 4.74 2.68 4.72 2.83 5.11 2.83 5.3 2.68"></polygon>
            <polygon class="cls-3" points="5.9 3.01 5.14 3.02 4.64 3.44 4.6 3.73 5.2 3.69 5.9 3.01"></polygon>
            <polygon class="cls-3" points="5.02 3.86 4.57 3.89 4.55 4.05 4.84 4.04 5.02 3.86"></polygon>
            <path class="cls-3" d="m14.97,8.34c.09-.01.16-.11.14-.22-.02-.11-.11-.19-.2-.18s-.16.11-.14.22.11.19.2.18Z"></path>
            <path class="cls-3" d="m11.24,8.36c.17,0,.33-.12.36-.27,0,0,0-.01,0-.02,0,0,0,0,0,0,0,0,0,0,0-.01,0,0,0,0,0,0,0,0,0,0,0,0,0,0,0,0,0,0,0,0,0,0,0,0,0,0,0,0,0,0,0,0,0,0,0-.01,0,0,0,0,0,0,0,0,0,0,0-.01,0,0,0,0,0,0,0,0,0,0,0-.01,0,0,0,0,0,0,0,0,0,0,0-.01,0,0,0,0,0,0,0,0,0,0,0,0,0,0,0-.01,0-.02,0,0,0,0,0,0,0,0,0-.01,0-.02,0,0,0,0,0,0,0,0,0-.01,0-.02,0,0,0,0,0,0,0,0,0,0,0-.01,0,0,0,0,0,0,0,0-.01-.02-.02-.03,0,0,0,0,0,0,0,0-.02-.01-.03-.02,0,0,0,0,0,0,0,0,0,0-.01,0,0,0,0,0,0,0,0,0-.01,0-.02,0,0,0,0,0,0,0,0,0,0,0-.01,0,0,0,0,0,0,0,0,0-.01,0-.02,0,0,0,0,0,0,0,0,0,0,0-.01,0,0,0,0,0,0,0,0,0-.01,0-.02,0,0,0,0,0,0,0,0,0-.01,0-.02,0,0,0,0,0,0,0,0,0-.01,0-.02,0,0,0-.02,0-.03,0,0,0,0,0,0,0,0,0-.01,0-.02,0,0,0,0,0,0,0,0,0-.02,0-.03,0,0,0,0,0,0,0,0,0-.01,0-.02,0,0,0,0,0-.01,0,0,0-.01,0-.02,0,0,0,0,0-.01,0,0,0-.01,0-.02.01,0,0,0,0-.01,0,0,0,0,0,0,0,0,0,0,0-.01,0,0,0,0,0,0,0-.02.01-.03.02-.05.04,0,0,0,0,0,0-.02.02-.04.05-.06.07,0,0,0,0,0,0,0,0,0,0,0,.01,0,0,0,.01,0,.02,0,0,0,0,0,0,0,0,0,.01,0,.02,0,0,0,0,0,0,0,0,0,.02,0,.03-.03.15.08.28.24.28Z"></path>
            <path class="cls-3" d="m11.97,8.48c.13,0,.25-.09.27-.21s-.06-.21-.19-.21c-.13,0-.25.09-.27.21-.02.12.06.21.19.21Z"></path>
            <polygon class="cls-3" points="4.69 3.03 4.67 3.21 4.88 3.03 4.69 3.03"></polygon>
            <path class="cls-3" d="m6.49,4.15l-.13.08c-.26.15-.51.3-.76.46-.83.52-1.66,1.05-2.47,1.6,1.09-.65,2.1-1.24,3.22-1.81v1.47s-.05,0-.05,0c-.24.04-.5.11-.73.17-.79.21-1.78.53-2.57.78-.38.12-.76.24-1.15.33.15-.03.29-.06.44-.1,1.16-.28,2.43-.67,3.61-.92.19-.04.39-.07.58-.1,0,0,0,0,0,0h0v-1.97Z"></path>
          </g>
        </g>
      </g>
      <g>
        <polygon class="cls-3" points="5.9 3.01 5.14 3.02 4.64 3.44 4.6 3.73 5.2 3.69 5.9 3.01"></polygon>
        <path class="cls-3" d="m11.24,8.36c.17,0,.33-.12.36-.27,0,0,0-.01,0-.02,0,0,0,0,0,0,0,0,0,0,0-.01,0,0,0,0,0,0,0,0,0,0,0,0,0,0,0,0,0,0,0,0,0,0,0,0,0,0,0,0,0,0,0,0,0,0,0-.01,0,0,0,0,0,0,0,0,0,0,0-.01,0,0,0,0,0,0,0,0,0,0,0-.01,0,0,0,0,0,0,0,0,0,0,0-.01,0,0,0,0,0,0,0,0,0,0,0,0,0,0,0-.01,0-.02,0,0,0,0,0,0,0,0,0-.01,0-.02,0,0,0,0,0,0,0,0,0-.01,0-.02,0,0,0,0,0,0,0,0,0,0,0-.01,0,0,0,0,0,0,0,0-.01-.02-.02-.03,0,0,0,0,0,0,0,0-.02-.01-.03-.02,0,0,0,0,0,0,0,0,0,0-.01,0,0,0,0,0,0,0,0,0-.01,0-.02,0,0,0,0,0,0,0,0,0,0,0-.01,0,0,0,0,0,0,0,0,0-.01,0-.02,0,0,0,0,0,0,0,0,0,0,0-.01,0,0,0,0,0,0,0,0,0-.01,0-.02,0,0,0,0,0,0,0,0,0-.01,0-.02,0,0,0,0,0,0,0,0,0-.01,0-.02,0,0,0-.02,0-.03,0,0,0,0,0,0,0,0,0-.01,0-.02,0,0,0,0,0,0,0,0,0-.02,0-.03,0,0,0,0,0,0,0,0,0-.01,0-.02,0,0,0,0,0-.01,0,0,0-.01,0-.02,0,0,0,0,0-.01,0,0,0-.01,0-.02.01,0,0,0,0-.01,0,0,0,0,0,0,0,0,0,0,0-.01,0,0,0,0,0,0,0-.02.01-.03.02-.05.04,0,0,0,0,0,0-.02.02-.04.05-.06.07,0,0,0,0,0,0,0,0,0,0,0,.01,0,0,0,.01,0,.02,0,0,0,0,0,0,0,0,0,.01,0,.02,0,0,0,0,0,0,0,0,0,.02,0,.03-.03.15.08.28.24.28Z"></path>
        <polygon class="cls-3" points="6.1 2.67 5.56 2.67 5.37 2.83 6.05 2.83 6.1 2.67"></polygon>
        <polygon class="cls-3" points="4.69 3.03 4.67 3.21 4.88 3.03 4.69 3.03"></polygon>
        <polygon class="cls-3" points="5.3 2.68 4.74 2.68 4.72 2.83 5.11 2.83 5.3 2.68"></polygon>
        <path class="cls-3" d="m11.97,8.48c.13,0,.25-.09.27-.21s-.06-.21-.19-.21c-.13,0-.25.09-.27.21-.02.12.06.21.19.21Z"></path>
        <path class="cls-3" d="m14.97,8.34c.09-.01.16-.11.14-.22-.02-.11-.11-.19-.2-.18s-.16.11-.14.22.11.19.2.18Z"></path>
        <polygon class="cls-3" points="8.52 9.88 8.65 10.05 8.53 9.88 8.52 9.88"></polygon>
        <polygon class="cls-3" points="5.02 3.86 4.57 3.89 4.55 4.05 4.84 4.04 5.02 3.86"></polygon>
        <path class="cls-3" d="m9.91,5.5c-.1-.13-.18-.27-.28-.4-.96-1.38-1.47-1.66-1.48-1.67l-.19.08s-.01,0-.02,0l-.42.2s-.07.06-.07.11l-.02.81s.02.08.04.1h0s.94.78,1.46.88c.52.1.85.11.85.11.29.02.31,0,.13-.24Z"></path>
        <path class="cls-3" d="m6.49,4.15l-.13.08c-.26.15-.51.3-.76.46-.83.52-1.66,1.05-2.47,1.6,1.09-.65,2.1-1.24,3.22-1.81v1.47s-.05,0-.05,0c-.24.04-.5.11-.73.17-.79.21-1.78.53-2.57.78-.38.12-.76.24-1.15.33.15-.03.29-.06.44-.1,1.16-.28,2.43-.67,3.61-.92.19-.04.39-.07.58-.1,0,0,0,0,0,0h0v-1.97Z"></path>
        <path class="cls-2" d="m18.22,12.33l1.97-.06c-.77-.17-3.43-.75-5.79-1.26l.43-.21v-.65l-1.7.28c-.42.08-.95.12-1.48.12s-1.05-.04-1.47-.12h0s-1.52-.38-1.52-.38l-.13-.17h0s-.23-.31-.23-.31c-.1-.11-.28-.23-.45-.26l-.56-.12c-.71-.15-3.15-.68-3.88-.84.75.14,3.18.61,3.9.75l.56.11c.2.03.39.13.53.28,0,0,.26.34.34.44l1.45.36c.83.16,2.09.16,2.92,0l1.94-.32c.69-.2.84-.94.56-1.65-.02-.05-.04-.1-.06-.15,0,0-.01,0-.02,0-.12.01-.24-.09-.26-.24-.02-.1.02-.19.08-.24-.61-1.37-1.57-3.07-2.76-3.98,1.1,1.14,1.92,2.65,2.28,3.36l-.31.41-2.04.04-.71-.44c-.36-.51-1-1.43-1.84-2.63-.86-1.23-1.43-1.64-1.72-1.77-.11-.04-.14-.02-.23-.01-.35,0-1.64.73-2.41,1.3,0,0-.23.18-.62.48l-.08-.26h0s1.23-1.19,1.23-1.19h.18s.08,0,.1.04c.02.02.02.06,0,.1v.03s.04.02.04.02l.05.02v-.03s0,0,0,0h0c.04-.1.03-.2-.01-.26-.04-.05-.1-.08-.17-.08h-.13s.05-.17.05-.17h.24c.06,0,.1.01.12.04.02.03.02.07,0,.11v.03s.09.04.09.04v-.03c.05-.1.05-.2,0-.27-.04-.06-.11-.09-.19-.09h-.74s3-2.49,3-2.49h-.3l-2.96,2.48h-1.1s0,0,0,0c-.19,0-.38.19-.39.41h0s0,.03,0,.04h.1c0-.12.14-.23.28-.24h.16s-.02.15-.02.15h-.09s0,0,0,0c-.18,0-.35.17-.36.38h0s0,.02,0,.04h.1c0-.11.13-.21.25-.21h.08s-.05.33-.05.33L.3,6.87c.13-.05.26-.1.39-.17l3.76-3.11-.09.63h.12s-.4.89-.4.89c-.53.39-1.17.83-1.86,1.28C2.23,6.39-.02,7.96,0,7.97h.03c1.21-.25,2.42-.5,3.58-.75.77-.16,1.54-.33,2.32-.42.14-.01.28-.02.42-.01.93.04,1.54.51,2.09,1.18.06.07.11.14.17.21.36.47.67.89.67.89,0,0-.44-.5-.92-.96-.05-.05-.1-.1-.15-.14-.56-.5-1.19-.8-1.97-.8-.12,0-.24,0-.37.02-.69.08-1.51.2-2.2.29-1.04.14-2.09.31-3.13.48-.13.02-.33.04-.46.06,0,0,11.92,4.45,12.74,4.73l1.67-.04-3.48-1.22c1.11-.06,2.48-.19,2.8-.23,1.54.37,3.18.76,4.43,1.06Zm-3.32-4.39c.09-.01.19.07.2.18.02.11-.04.21-.14.22-.09.01-.19-.07-.2-.18-.02-.11.04-.21.14-.22Zm-2.85.11c.13,0,.21.1.19.21s-.15.21-.27.21c-.13,0-.21-.1-.19-.21.02-.12.15-.21.27-.21Zm-1.06,0s0,0,0,0c0,0,0-.01,0-.02,0,0,0,0,0,0,0,0,0-.01,0-.02,0,0,0,0,0-.01,0,0,0,0,0,0,.02-.03.03-.05.06-.07,0,0,0,0,0,0,.01-.01.03-.03.05-.04h0s0-.01.01-.01c0,0,0,0,0,0,0,0,0,0,.01,0,0,0,.01,0,.02-.01,0,0,0,0,.01,0,0,0,.01,0,.02,0,0,0,0,0,.01,0,0,0,.01,0,.02,0,0,0,0,0,0,0,0,0,.02,0,.03,0,0,0,0,0,0,0,0,0,.01,0,.02,0,0,0,0,0,0,0,0,0,.02,0,.03,0,0,0,.01,0,.02,0h0s.01,0,.02,0c0,0,0,0,0,0,0,0,.01,0,.02,0,0,0,0,0,0,0,0,0,0,0,.01,0,0,0,0,0,0,0,0,0,.01,0,.02,0,0,0,0,0,0,0,0,0,0,0,.01,0,0,0,0,0,0,0,0,0,.01,0,.02,0,0,0,0,0,0,0,0,0,0,0,.01,0,0,0,0,0,0,0,0,0,.02.01.03.02,0,0,0,0,0,0,0,0,.02.02.02.03,0,0,0,0,0,0,0,0,0,0,0,.01,0,0,0,0,0,0,0,0,0,.01,0,.02,0,0,0,0,0,0,0,0,0,.01,0,.02,0,0,0,0,0,0,0,0,0,.01,0,.02h0s0,0,0,0c0,0,0,0,0,.01,0,0,0,0,0,0,0,0,0,0,0,.01,0,0,0,0,0,0,0,0,0,0,0,.01,0,0,0,0,0,0,0,0,0,0,0,.01,0,0,0,0,0,0h0s0,.02,0,.02c0,0,0,0,0,0,0,0,0,0,0,.01,0,0,0,0,0,0,0,0,0,.01,0,.02-.03.15-.19.28-.36.27-.17,0-.27-.13-.24-.28,0,0,0-.02,0-.03ZM5.56,2.67h.54s-.05.16-.05.16h-.68s.19-.16.19-.16Zm-.82,0h.56s-.19.15-.19.15h-.39s.02-.15.02-.15Zm-.05.35h.19s-.21.18-.21.18l.02-.18Zm-.06.41l.5-.42h.77s-.7.67-.7.67l-.6.04.04-.29Zm-.06.45l.45-.03-.18.18h-.29s.02-.15.02-.15Zm1.91,2.24c-.19.02-.39.06-.58.1-1.17.24-2.44.63-3.61.92-.14.03-.29.07-.44.1.39-.09.77-.21,1.15-.33.79-.24,1.78-.57,2.57-.78.24-.06.49-.13.73-.17,0,0,.02,0,.05,0v-1.47c-1.13.57-2.13,1.16-3.22,1.81.81-.55,1.64-1.09,2.47-1.6.25-.16.5-.31.76-.46l.13-.08v1.97s0,0,0,0c0,0,0,0,0,0Zm2.45-.5c-.52-.1-1.46-.88-1.46-.88h0s-.05-.07-.04-.11l.02-.81s.03-.09.07-.11l.42-.2s.01,0,.02,0l.19-.08s.52.29,1.48,1.67c.1.14.18.28.28.4.18.24.16.26-.13.24,0,0-.33-.01-.85-.11Zm-7.28,2.87c-.11,0-.21-.16-.24-.35,0,0,0-.01,0-.02,0-.02,0-.04,0-.06,0-.05,0-.09,0-.13,0,.02,0,.04,0,.07,0,.04.01.08.02.12,0,0,0,.01,0,.02.04.14.11.25.19.26.07,0,.12-.04.14-.17.03,0,.07.02.1.03-.02.15-.11.24-.21.24Zm1.05.03c-.04.14-.14.26-.25.26-.15,0-.3-.22-.32-.46,0,0,0,0,0-.01,0,0,0-.02,0-.03,0-.04,0-.08,0-.11,0,.02,0,.05,0,.07,0,.01,0,.03,0,.04,0,.01,0,.03,0,.04.04.19.15.35.26.35.08,0,.15-.08.19-.19,0,0,0-.03.01-.05.04.01.07.03.1.05v.03Zm3.27,1.51c-.23,0-.45-.32-.52-.7,0-.01,0-.03,0-.04,0-.04-.01-.08-.01-.12,0-.09,0-.18,0-.26,0,.04,0,.09,0,.14,0,.09.02.17.05.25,0,.01,0,.03.01.04.09.29.24.5.4.51.15.01.27-.09.3-.34.07.02.14.03.21.05-.04.31-.24.47-.44.47Zm2.23.06c-.09.29-.31.52-.54.52-.33,0-.63-.44-.69-.92,0,0,0-.02,0-.03,0-.02,0-.04,0-.06,0-.08,0-.15,0-.23,0,.05,0,.1,0,.15,0,.03,0,.06.01.08,0,.03.01.06.02.09.09.39.32.69.56.71.17.01.33-.15.39-.38,0-.02.02-.06.03-.1.08.02.15.06.22.1v.05Z"></path>
        <path class="cls-1" d="m8.65,10.05s.1-.09.1-.09c0,0,0-.01-.02-.03l-.21-.05.13.17Z"></path>
      </g>
      <g>
        <path class="cls-2" d="m23.6,4.88h0c-.31-.55-.75-1-1.3-1.32-.55-.32-1.18-.49-1.87-.49-.68,0-1.31.16-1.87.49-.55.32-.99.77-1.3,1.32h0c-.31.55-.47,1.17-.47,1.83,0,.66.16,1.27.47,1.83h0c.31.55.75,1,1.3,1.32.55.32,1.18.49,1.87.49.68,0,1.31-.16,1.87-.49.55-.32.99-.77,1.3-1.32h0c.31-.55.47-1.17.47-1.83,0-.66-.16-1.28-.47-1.83Zm-2.2,3.62c-.29.18-.6.27-.97.27-.37,0-.69-.09-.97-.27h0c-.28-.18-.5-.42-.66-.73-.16-.32-.24-.66-.24-1.06,0-.39.08-.74.24-1.06.16-.32.38-.55.66-.73.28-.18.6-.26.97-.26.37,0,.68.09.97.27.29.18.51.42.68.74h0c.16.31.25.66.25,1.05,0,.39-.08.74-.25,1.05-.16.31-.39.55-.68.74h0Z"></path>
        <g>
          <polygon class="cls-2" points="24.75 10.04 24.75 10.04 24.75 10.03 24.75 10.04"></polygon>
          <polygon class="cls-2" points="25.89 10.01 25.86 10.04 25.86 10.04 25.86 10.04 25.89 10.01"></polygon>
          <path class="cls-2" d="m30.86,3.92c0-.2-.07-.4-.21-.54h0c-.14-.15-.34-.22-.55-.22-.21,0-.41.07-.55.21-.15.14-.23.34-.22.54v3.47l-3.27-3.93h0c-.08-.1-.18-.17-.3-.22h0c-.12-.05-.25-.07-.38-.07-.22,0-.43.08-.59.23-.16.15-.25.36-.25.57v5.53c0,.2.07.4.22.54.14.15.34.22.55.22.21,0,.41-.07.56-.21.15-.14.23-.34.22-.54v-3.44l3.3,3.95h0c.08.1.18.15.3.19h0c.11.04.23.05.34.05.22,0,.43-.08.59-.23h0c.16-.15.25-.36.25-.57V3.92Z"></path>
          <polygon class="cls-2" points="29.54 3.39 29.54 3.39 29.54 3.39 29.54 3.39"></polygon>
        </g>
      </g>
    </g>
  </g>
</svg>
